<svg width="24" height="24" viewBox="0 0 24 24" fill="none" xmlns="http://www.w3.org/2000/svg">
    <path d="M3 21C2.44772 21 2 20.5523 2 20L2 16C2 11.0294 6.02944 7 11 7L18.5858 7L15.2929 3.70711C14.9024 3.31658 14.9024 2.68342 15.2929 2.29289C15.6834 1.90237 16.3166 1.90237 16.7071 2.29289L21.7071 7.29289C22.0976 7.68342 22.0976 8.31658 21.7071 8.70711L16.7071 13.7071C16.3166 14.0976 15.6834 14.0976 15.2929 13.7071C14.9024 13.3166 14.9024 12.6834 15.2929 12.2929L18.5858 9L11 9C7.13401 9 4 12.134 4 16L4 20C4 20.5523 3.55228 21 3 21Z"
          fill="currentColor"></path>
</svg>