<svg xmlns="http://www.w3.org/2000/svg" xmlns:xlink="http://www.w3.org/1999/xlink" fill="none" version="1.1" width="25.270416259765625" height="26.600738525390625" viewBox="0 0 25.270416259765625 26.600738525390625"><g><g></g><g transform="matrix(0.6401843428611755,-0.7682213187217712,0.7682213187217712,0.6401843428611755,-16.175299652677495,8.770485000204644)"><path d="M26.5875244140625,27.868229960937498Q26.9207244140625,28.275419960937498,27.0744244140625,28.4599199609375L28.6109244140625,27.1795799609375Q28.4630244140625,27.0020899609375,28.1353244140625,26.6016499609375Q25.2331244140625,23.0549699609375,23.2305244140625,21.7938859609375Q19.2996244140625,19.3185499609375,15.9352244140625,22.1221409609375Q7.4847444140625,29.1640799609375,2.0432464140624997,22.6342809609375L0.5068024140625,23.9146499609375Q7.2286544140625,31.980909960937502,17.2156244140625,23.6585999609375Q19.4636244140625,21.7853169609375,22.1647244140625,23.4862899609375Q23.8916244140625,24.573739960937502,26.5875244140625,27.868229960937498Z" fill-rule="evenodd" fill="#000000" fill-opacity="1"/></g><g transform="matrix(0.7808693647384644,0.6246944069862366,-0.6246943473815918,0.7808693647384644,5.317739141599304,-10.77783562517834)"><line x1="18.021514892578125" y1="1.190948486328125" x2="24.021514892578125" y2="1.190948486328125" fill-opacity="0" stroke-opacity="1" stroke="#000000" fill="none" stroke-width="2"/></g><g transform="matrix(0.7682225108146667,-0.6401829719543457,0.6401829123497009,0.7682225108146667,-1.141764899055488,14.910466524965159)"><line x1="20.020904541015625" y1="8.03204345703125" x2="26.020904541015625" y2="8.03204345703125" fill-opacity="0" stroke-opacity="1" stroke="#000000" fill="none" stroke-width="2"/></g></g></svg>