<svg width="24" height="24" viewBox="0 0 24 24" fill="none" xmlns="http://www.w3.org/2000/svg">
    <path d="M14.2378 12C14.2378 11.4477 13.79 11 13.2378 11H10.7378C10.1855 11 9.73775 11.4477 9.73775 12C9.73775 12.5523 10.1855 13 10.7378 13H13.2378C13.79 13 14.2378 12.5523 14.2378 12Z"
          fill="currentColor"></path>
    <path d="M21 12C21 11.4477 20.5523 11 20 11L17.5 11C16.9477 11 16.5 11.4477 16.5 12C16.5 12.5523 16.9477 13 17.5 13H20C20.5523 13 21 12.5523 21 12Z"
          fill="currentColor"></path>
    <path d="M3 12C3 11.4477 3.44772 11 4 11H6.5C7.05228 11 7.5 11.4477 7.5 12C7.5 12.5523 7.05228 13 6.5 13H4C3.44772 13 3 12.5523 3 12Z"
          fill="currentColor"></path>
</svg>