<svg width="32" height="32" viewBox="0 0 32 32" fill="none" xmlns="http://www.w3.org/2000/svg">
    <g clip-path="url(#clip0_13353_4782)">
        <path fill-rule="evenodd" clip-rule="evenodd" d="M1 16C1 7.71573 7.71391 1 16 1C24.2843 1 31 7.71391 31 16C31 24.2843 24.2861 31 16 31C7.71573 31 1 24.2861 1 16ZM6.46 26.2471C8.96008 28.5757 12.3135 30 16 30C23.7332 30 30 23.7326 30 16C30 12.3134 28.5756 8.96 26.2471 6.46L6.46 26.2471ZM5.75289 25.54C3.4244 23.04 2 19.6866 2 16C2 8.26737 8.26684 2 16 2C19.6865 2 23.0399 3.42435 25.54 5.7529L5.75289 25.54Z" fill="#CDCCD7"/>
    </g>
    <defs>
        <clipPath id="clip0_13353_4782">
            <rect width="32" height="32" fill="white"/>
        </clipPath>
    </defs>
</svg>
