<svg width="26" height="26" viewBox="0 0 26 26" fill="none" xmlns="http://www.w3.org/2000/svg">
    <path d="M13.3722 1.63801L1.40212 14.8425C0.829181 15.4747 0.5 16.3416 0.5 17.2547C0.5 18.1677 0.829181 19.0347 1.40212 19.6669L5.80642 24.5253L5.80647 24.5254C6.37797 25.156 7.14202 25.4998 7.92707 25.5L13.3722 1.63801ZM13.3722 1.63801H13.374L13.5228 1.47388C14.0944 0.843494 14.8585 0.5 15.6435 0.5C16.4285 0.5 17.1926 0.843494 17.7642 1.47388L24.5979 9.01224C24.5979 9.01226 24.5979 9.01227 24.5979 9.01229C25.1708 9.6445 25.5 10.5114 25.5 11.4245C25.5 12.3375 25.1708 13.2044 24.5979 13.8366C24.5979 13.8366 24.5979 13.8367 24.5979 13.8367L14.9084 24.5253L14.9083 24.5254C14.3368 25.156 13.5728 25.4998 12.7877 25.5C12.7877 25.5 12.7876 25.5 12.7876 25.5H7.92719L13.3722 1.63801ZM17.2595 2.17618L17.2594 2.17612C16.8399 1.71351 16.2599 1.44299 15.6435 1.44299C15.027 1.44299 14.447 1.71351 14.0275 2.17612L14.0275 2.17618L5.86536 11.18L5.56094 11.5158L5.86536 11.8516L15.1902 22.1381L15.5607 22.5467L15.9311 22.1381L24.0933 13.1343L24.0933 13.1342C24.5112 12.6731 24.7386 12.0574 24.7386 11.4245C24.7386 10.7915 24.5112 10.1758 24.0933 9.71471L24.0933 9.71465L17.2595 2.17618ZM14.6866 23.5109L14.9891 23.1752L14.6856 22.8404L5.3607 12.554L4.99025 12.1453L4.61981 12.554L1.90849 15.5449L1.90844 15.5449C1.49056 16.006 1.26312 16.6217 1.26312 17.2547C1.26312 17.8876 1.49056 18.5033 1.90844 18.9644L1.90849 18.9645L6.31279 23.8229C6.31281 23.823 6.31282 23.823 6.31284 23.823C6.73225 24.2858 7.31223 24.5564 7.92872 24.5566H7.92883H12.7895H12.7896C13.4061 24.5564 13.9861 24.2857 14.4055 23.8229L14.4065 23.8218L14.6866 23.5109Z" fill="black" stroke="black"/>
</svg>
