<svg xmlns="http://www.w3.org/2000/svg" xmlns:xlink="http://www.w3.org/1999/xlink" fill="none" version="1.1" width="17.999975204467773" height="14.727919578552246" viewBox="0 0 17.999975204467773 14.727919578552246"><g transform="matrix(-1,0,0,1,35.99995040893555,0)"><path d="M18.999975204467773,6.36396C18.447690204467772,6.36396,17.999975204467773,6.81168,17.999975204467773,7.36396C17.999975204467773,7.91624,18.447690204467772,8.36396,18.999975204467773,8.36396C18.999975204467773,8.36396,18.999975204467773,6.36396,18.999975204467773,6.36396C18.999975204467773,6.36396,18.999975204467773,6.36396,18.999975204467773,6.36396ZM35.70707520446777,8.07107C36.09757520446777,7.68054,36.09757520446777,7.04738,35.70707520446777,6.65685C35.70707520446777,6.65685,29.343075204467773,0.29289,29.343075204467773,0.29289C28.952575204467774,-0.09763,28.31947520446777,-0.09763,27.928905204467775,0.29289C27.538385204467772,0.68342,27.538385204467772,1.31658,27.928905204467775,1.70711C27.928905204467775,1.70711,33.58577520446777,7.36396,33.58577520446777,7.36396C33.58577520446777,7.36396,27.928905204467775,13.0208,27.928905204467775,13.0208C27.538385204467772,13.4113,27.538385204467772,14.0445,27.928905204467775,14.435C28.31947520446777,14.8256,28.952575204467774,14.8256,29.343075204467773,14.435C29.343075204467773,14.435,35.70707520446777,8.07107,35.70707520446777,8.07107C35.70707520446777,8.07107,35.70707520446777,8.07107,35.70707520446777,8.07107ZM18.999975204467773,8.36396C18.999975204467773,8.36396,34.99997520446777,8.36396,34.99997520446777,8.36396C34.99997520446777,8.36396,34.99997520446777,6.36396,34.99997520446777,6.36396C34.99997520446777,6.36396,18.999975204467773,6.36396,18.999975204467773,6.36396C18.999975204467773,6.36396,18.999975204467773,8.36396,18.999975204467773,8.36396C18.999975204467773,8.36396,18.999975204467773,8.36396,18.999975204467773,8.36396Z" fill="currentColor" fill-opacity="1"/></g></svg>