<svg width="20" height="20" viewBox="0 0 20 20" fill="none" xmlns="http://www.w3.org/2000/svg">
<path d="M13.7947 18.5658C13.5625 18.5633 13.3343 18.5061 13.1283 18.399L5.51992 15.1774C5.30088 15.0868 5.1035 14.9508 4.94076 14.7785C4.77802 14.6061 4.65361 14.4013 4.57571 14.1774C4.55018 14.1081 4.53853 14.0345 4.54146 13.9607C4.54438 13.8869 4.5618 13.8144 4.59274 13.7473C4.62368 13.6803 4.66752 13.62 4.72176 13.5699C4.776 13.5198 4.83958 13.4808 4.90887 13.4553C4.97816 13.4297 5.0518 13.4181 5.12559 13.421C5.19938 13.4239 5.27187 13.4414 5.33892 13.4723C5.40598 13.5032 5.46628 13.5471 5.51639 13.6013C5.5665 13.6556 5.60544 13.7191 5.63098 13.7884C5.69272 13.9533 5.81071 14.0911 5.96414 14.1774L13.5726 17.4548C13.7346 17.5103 13.9105 17.5103 14.0726 17.4548C14.1511 17.4308 14.2226 17.3879 14.2807 17.3298C14.3388 17.2717 14.3818 17.2002 14.4057 17.1216L18.2936 8.06896C18.3492 7.90693 18.3492 7.731 18.2936 7.56896C18.2697 7.49035 18.2268 7.41883 18.1687 7.36073C18.1106 7.30263 18.0391 7.25972 17.9605 7.2358L12.9605 5.06949C12.8323 5.00778 12.7331 4.89858 12.6841 4.76504C12.635 4.6315 12.6399 4.48411 12.6977 4.35409C12.7554 4.22407 12.8615 4.12165 12.9935 4.06853C13.1255 4.0154 13.2729 4.01575 13.4047 4.06949L18.4047 6.2358C18.6212 6.31516 18.8178 6.44073 18.9809 6.6038C19.1439 6.76686 19.2695 6.96349 19.3489 7.18001C19.5153 7.60882 19.5153 8.08437 19.3489 8.51317L15.461 17.5658C15.3817 17.7823 15.2561 17.979 15.093 18.1421C14.93 18.3051 14.7333 18.4307 14.5168 18.51C14.2389 18.51 14.0168 18.5658 13.7947 18.5658Z" fill="#999999"/>
<path d="M12.0169 14.3442H3.57431C3.35437 14.3483 3.13586 14.308 2.93185 14.2257C2.72785 14.1434 2.54253 14.0208 2.38698 13.8652C2.23143 13.7097 2.10884 13.5244 2.02654 13.3203C1.94424 13.1163 1.90392 12.8978 1.908 12.6779V2.67789C1.90421 2.45812 1.94474 2.23984 2.02717 2.03608C2.1096 1.83232 2.23223 1.64726 2.38775 1.49193C2.54327 1.33661 2.72849 1.21421 2.93235 1.13204C3.13622 1.04987 3.35455 1.00961 3.57431 1.01368H12.0169C12.2369 1.00968 12.4553 1.05005 12.6593 1.13237C12.8633 1.2147 13.0486 1.33729 13.2041 1.49283C13.3596 1.64836 13.4822 1.83365 13.5646 2.03762C13.6469 2.2416 13.6873 2.46007 13.6833 2.67999V12.68C13.6815 13.1212 13.5052 13.5437 13.1931 13.8555C12.8809 14.1673 12.4581 14.343 12.0169 14.3442ZM3.57431 2.12473C3.50029 2.12053 3.42622 2.13202 3.35696 2.15844C3.28769 2.18486 3.22478 2.22562 3.17236 2.27804C3.11994 2.33046 3.07918 2.39337 3.05276 2.46264C3.02634 2.53191 3.01485 2.60598 3.01905 2.67999V12.68C3.01485 12.754 3.02634 12.8281 3.05276 12.8973C3.07918 12.9666 3.11994 13.0295 3.17236 13.0819C3.22478 13.1344 3.28769 13.1751 3.35696 13.2015C3.42622 13.228 3.50029 13.2395 3.57431 13.2353H12.0169C12.091 13.2395 12.165 13.228 12.2343 13.2015C12.3036 13.1751 12.3665 13.1344 12.4189 13.0819C12.4713 13.0295 12.5121 12.9666 12.5385 12.8973C12.5649 12.8281 12.5764 12.754 12.5722 12.68V2.67999C12.5764 2.60598 12.5649 2.53191 12.5385 2.46264C12.5121 2.39337 12.4713 2.33046 12.4189 2.27804C12.3665 2.22562 12.3036 2.18486 12.2343 2.15844C12.165 2.13202 12.091 2.12053 12.0169 2.12473H3.57431Z" fill="#666666"/>
<path d="M9.96145 5.06841H5.29566C5.2216 5.07261 5.14748 5.06111 5.07817 5.03466C5.00887 5.00821 4.94593 4.9674 4.8935 4.91492C4.84107 4.86244 4.80033 4.79947 4.77394 4.73014C4.74756 4.66081 4.73612 4.58668 4.7404 4.51262C4.7362 4.4386 4.74769 4.36453 4.77411 4.29526C4.80053 4.226 4.84129 4.16309 4.89371 4.11067C4.94613 4.05824 5.00904 4.01749 5.07831 3.99107C5.14757 3.96465 5.22164 3.95316 5.29566 3.95736H9.96145C10.0355 3.95316 10.1095 3.96465 10.1788 3.99107C10.2481 4.01749 10.311 4.05824 10.3634 4.11067C10.4158 4.16309 10.4566 4.226 10.483 4.29526C10.5094 4.36453 10.5209 4.4386 10.5167 4.51262C10.521 4.58668 10.5096 4.66081 10.4832 4.73014C10.4568 4.79947 10.416 4.86244 10.3636 4.91492C10.3112 4.9674 10.2482 5.00821 10.1789 5.03466C10.1096 5.06111 10.0355 5.07261 9.96145 5.06841ZM10.0172 8.17894H5.35145C5.20708 8.17449 5.0701 8.11401 4.96955 8.01032C4.869 7.90662 4.81276 7.76785 4.81276 7.62341C4.81276 7.47897 4.869 7.3402 4.96955 7.2365C5.0701 7.1328 5.20708 7.07233 5.35145 7.06788H10.0172C10.1616 7.07233 10.2986 7.1328 10.3991 7.2365C10.4997 7.3402 10.5559 7.47897 10.5559 7.62341C10.5559 7.76785 10.4997 7.90662 10.3991 8.01032C10.2986 8.11401 10.1616 8.17449 10.0172 8.17894ZM8.62934 11.2895H5.18566C5.04129 11.285 4.90431 11.2245 4.80376 11.1208C4.70321 11.0171 4.64697 10.8784 4.64697 10.7339C4.64697 10.5895 4.70321 10.4507 4.80376 10.347C4.90431 10.2433 5.04129 10.1829 5.18566 10.1784H8.62934C8.77372 10.1829 8.91069 10.2433 9.01125 10.347C9.1118 10.4507 9.16803 10.5895 9.16803 10.7339C9.16803 10.8784 9.1118 11.0171 9.01125 11.1208C8.91069 11.2245 8.77372 11.285 8.62934 11.2895Z" fill="#666666"/>
</svg>
