<svg width="80" height="80" viewBox="0 0 80 80" fill="none" xmlns="http://www.w3.org/2000/svg">
    <g clip-path="url(#clip0_31_169)">
        <rect width="80" height="80" rx="12" fill="#545DE7"/>
        <path d="M24 18C21.7909 18 20 19.7909 20 22C20 24.2091 21.7909 26 24 26H53C55.2091 26 57 27.7909 57 30C57 32.2091 55.2091 34 53 34H11C8.79086 34 7 35.7909 7 38C7 40.2091 8.79086 42 11 42H23V48C23 55.732 29.268 62 37 62H49C56.1532 62 63 57.2694 63 49C63 46.7909 61.2091 45 59 45C56.7909 45 55 46.7909 55 49C55 51.7763 52.8925 54 49 54H37C33.6863 54 31 51.3137 31 48V42H53C59.6274 42 65 36.6274 65 30C65 23.3726 59.6274 18 53 18H24Z" fill="white"/>
    </g>
    <defs>
        <clipPath id="clip0_31_169">
            <rect width="80" height="80" fill="white"/>
        </clipPath>
    </defs>
</svg>

