<svg width="26" height="26" viewBox="0 0 26 26" fill="none" xmlns="http://www.w3.org/2000/svg">
    <path d="M20.0896 0.592246L20.0901 0.591798C20.1191 0.5627 20.1536 0.539613 20.1915 0.523861C20.2295 0.508108 20.2702 0.5 20.3113 0.5C20.3524 0.5 20.3931 0.508108 20.4311 0.523861C20.469 0.539613 20.5035 0.5627 20.5325 0.591798L20.533 0.592245L25.4078 5.46703L25.4082 5.46748C25.4373 5.4965 25.4604 5.53098 25.4761 5.56895C25.4919 5.60691 25.5 5.6476 25.5 5.6887C25.5 5.7298 25.4919 5.7705 25.4761 5.80846C25.4604 5.84642 25.4373 5.8809 25.4082 5.90993L25.4078 5.91038L9.15971 22.1584C9.15951 22.1586 9.15931 22.1588 9.15911 22.159C9.12925 22.1885 9.09374 22.2117 9.05472 22.2272L9.05334 22.2277L0.928691 25.4776L0.92858 25.4776C0.871796 25.5004 0.80959 25.5059 0.749675 25.4936C0.68976 25.4813 0.634769 25.4517 0.591519 25.4085C0.54827 25.3652 0.518665 25.3102 0.506374 25.2503C0.494083 25.1904 0.499647 25.1282 0.522376 25.0714L0.522421 25.0713L3.77228 16.9467L3.77283 16.9453C3.78835 16.9061 3.81162 16.8705 3.84124 16.8406C3.84135 16.8405 3.84146 16.8404 3.84157 16.8403L20.0896 0.592246ZM17.8567 3.71022L17.5032 4.06377L17.8567 4.41733L21.5827 8.14329L21.9362 8.49684L22.2898 8.14329L24.3908 6.04226L24.7444 5.6887L24.3908 5.33515L20.6649 1.60919L20.3113 1.25563L19.9577 1.60919L17.8567 3.71022ZM21.141 9.29211L21.4945 8.93856L21.141 8.58501L17.415 4.85905L17.0614 4.50549L16.7079 4.85905L6.14585 15.4211L5.9994 15.5675V15.7746V16.2507V16.7507H6.4994H7.31186C7.39474 16.7507 7.47421 16.7837 7.53281 16.8423C7.59141 16.9009 7.62433 16.9803 7.62433 17.0632V17.8757V18.3757H8.12433H8.93679C9.01967 18.3757 9.09914 18.4086 9.15774 18.4672C9.21634 18.5258 9.24926 18.6053 9.24926 18.6881V19.5006V20.0006H9.74926H10.2254H10.4325L10.5789 19.8542L21.141 9.29211ZM5.39484 17.1726L5.12271 16.4442L4.57292 16.994L4.40067 17.1663L4.32809 17.2388L4.28997 17.3342L1.80708 23.543L1.374 24.626L2.45699 24.1929L8.66584 21.71L8.76116 21.6719L8.83374 21.5993L9.00598 21.4271L9.55578 20.8773L8.82743 20.6052C8.76783 20.5829 8.71644 20.5429 8.68015 20.4907C8.64385 20.4384 8.62438 20.3763 8.62433 20.3127V19.5006V19.0006H8.12433H7.31186C7.22899 19.0006 7.14952 18.9677 7.09092 18.9091C7.03232 18.8505 6.9994 18.771 6.9994 18.6881V17.8757V17.3757H6.4994H5.68731C5.62368 17.3756 5.56158 17.3561 5.50932 17.3199C5.45705 17.2836 5.41712 17.2322 5.39484 17.1726Z" fill="black" stroke="black"/>
</svg>
