<svg width="20" height="20" viewBox="0 0 20 20" fill="none" xmlns="http://www.w3.org/2000/svg">
<path d="M15.3425 15.2646C14.6474 15.95 13.8389 16.4909 12.9348 16.8697C11.9994 17.2642 11.0055 17.4692 9.97639 17.479H9.89633C8.85552 17.479 7.85376 17.2779 6.91254 16.8815C6.00451 16.4987 5.19608 15.95 4.50871 15.2529C3.13593 13.8586 2.39389 11.9976 2.42513 10.0195C2.44075 9.00214 2.6497 8.02186 3.04806 7.09821C3.43275 6.20386 3.97756 5.40323 4.66688 4.71587C6.08457 3.30403 7.97678 2.52489 9.98811 2.52489C11.0113 2.52489 12.0033 2.72407 12.9368 3.11462C13.8389 3.4915 14.6454 4.03241 15.3406 4.71977C16.0358 5.40714 16.5806 6.20581 16.9594 7.09626C17.3519 8.016 17.553 8.99433 17.553 10.0019C17.553 11.9898 16.768 13.8586 15.3425 15.2646ZM9.98811 1.35324C5.16483 1.35324 1.32769 5.22553 1.25544 10.0019C1.18123 14.8311 5.0711 18.6487 9.89633 18.6487H9.98811C14.8114 18.5999 18.7227 14.7784 18.7227 9.99999C18.7247 5.22553 14.8114 1.35324 9.98811 1.35324Z" fill="#111111"/>
<path d="M14.3876 10.1172H9.98415V5.67466C9.98415 5.3505 9.72248 5.08884 9.39832 5.08884C9.07417 5.08884 8.8125 5.3505 8.8125 5.67466V10.701C8.8125 11.0252 9.07417 11.2868 9.39832 11.2868H14.3856C14.7098 11.2868 14.9715 11.0252 14.9715 10.701C14.9715 10.3788 14.7098 10.1172 14.3876 10.1172Z" fill="#111111"/>
</svg>
