<svg width="20" height="20" viewBox="0 0 20 20" fill="none" xmlns="http://www.w3.org/2000/svg">
<path d="M10 18.7891C14.854 18.7891 18.7891 14.854 18.7891 10C18.7891 5.14604 14.854 1.21094 10 1.21094C5.14604 1.21094 1.21094 5.14604 1.21094 10C1.21094 14.854 5.14604 18.7891 10 18.7891ZM10 17.5107C8.00805 17.5107 6.09769 16.7194 4.68917 15.3108C3.28065 13.9023 2.48935 11.9919 2.48935 10C2.48935 8.00805 3.28065 6.09769 4.68917 4.68917C6.09769 3.28065 8.00805 2.48935 10 2.48935C11.9919 2.48935 13.9023 3.28065 15.3108 4.68917C16.7194 6.09769 17.5107 8.00805 17.5107 10C17.5107 11.9919 16.7194 13.9023 15.3108 15.3108C13.9023 16.7194 11.9919 17.5107 10 17.5107Z" fill="#555555"/>
<path d="M5.79173 12.8381L7.64782 8.3836C7.75098 8.13594 7.94597 7.9378 8.19194 7.83068L12.8541 5.80121C13.0423 5.71924 13.2506 5.69486 13.4526 5.73114C13.6546 5.76743 13.8414 5.86276 13.9892 6.00509C14.1371 6.14742 14.2395 6.33038 14.2835 6.53087C14.3275 6.73135 14.3111 6.94038 14.2364 7.13155L12.5026 11.5796C12.4523 11.7085 12.3768 11.8261 12.2805 11.9255C12.1842 12.0248 12.069 12.1039 11.9417 12.1581L7.15723 14.1932C6.96726 14.274 6.75752 14.2964 6.55478 14.2574C6.35203 14.2185 6.16549 14.12 6.01895 13.9746C5.87242 13.8292 5.77254 13.6434 5.73207 13.441C5.6916 13.2385 5.71237 13.0286 5.79173 12.8381ZM11.348 11.0219L12.8366 7.20346L8.7912 8.96447L7.19878 12.7869L11.348 11.0211V11.0219Z" fill="#555555"/>
</svg>
