<svg width="20" height="20" viewBox="0 0 20 20" fill="none" xmlns="http://www.w3.org/2000/svg">
<path d="M6.42841 4.04761V3.80951C6.42841 3.21428 6.54746 2.85713 6.6665 2.61904C6.78555 2.38094 7.02365 2.14285 7.38079 1.90475C7.61889 1.7857 7.97603 1.66666 8.57127 1.66666H11.4284C12.0236 1.66666 12.3808 1.7857 12.6189 1.90475C12.857 2.0238 13.0951 2.26189 13.3332 2.61904C13.4522 2.85713 13.5713 3.21428 13.5713 3.80951V4.04761H17.7379C18.0951 4.04761 18.3332 4.2857 18.3332 4.64285C18.3332 4.99999 18.0951 5.23809 17.7379 5.23809H2.26174C1.9046 5.23809 1.6665 4.99999 1.6665 4.64285C1.6665 4.2857 1.9046 4.04761 2.26174 4.04761H6.42841ZM7.61888 4.04761H12.3808V3.80951C12.3808 3.45237 12.3808 3.33332 12.2617 3.21428C12.2617 3.09523 12.1427 3.09523 12.0236 2.97618C12.0236 2.85713 11.7856 2.85713 11.4284 2.85713H8.57127C8.21412 2.85713 8.09508 2.85713 7.97603 2.97618C7.85698 2.97618 7.85698 3.09523 7.73793 3.21428C7.61888 3.21428 7.61888 3.45237 7.61888 3.80951V4.04761ZM5.23793 7.0238V14.7619C5.23793 15.7143 5.23793 16.0714 5.35698 16.3095C5.47603 16.5476 5.59508 16.6667 5.71412 16.7857C6.07127 17.1428 6.30936 17.1428 7.14269 17.1428H12.976C13.8094 17.1428 14.0475 17.1428 14.2856 16.9048C14.5236 16.7857 14.6427 16.6667 14.6427 16.4286C14.7617 16.0714 14.7617 15.8333 14.7617 14.7619V7.0238C14.7617 6.66666 14.9998 6.42856 15.357 6.42856C15.7141 6.42856 15.9522 6.66666 15.9522 7.0238V15C15.9522 16.1905 15.8332 16.5476 15.5951 17.0238C15.357 17.5 15.1189 17.7381 14.6427 17.9762C14.2856 18.2143 13.9284 18.3333 12.857 18.3333H7.14269C6.07127 18.3333 5.71412 18.2143 5.35698 17.9762C4.99984 17.7381 4.64269 17.3809 4.4046 17.0238C4.1665 16.5476 4.04746 16.0714 4.04746 15V7.0238C4.04746 6.66666 4.28555 6.42856 4.64269 6.42856C4.99984 6.42856 5.23793 6.66666 5.23793 7.0238ZM8.21412 7.61904C8.57127 7.61904 8.80936 7.85713 8.80936 8.21428V14.1667C8.80936 14.5238 8.57127 14.7619 8.21412 14.7619C7.85698 14.7619 7.61888 14.5238 7.61888 14.1667V8.21428C7.61888 7.85713 7.85698 7.61904 8.21412 7.61904ZM11.7856 7.61904C12.1427 7.61904 12.3808 7.85713 12.3808 8.21428V14.1667C12.3808 14.5238 12.1427 14.7619 11.7856 14.7619C11.4284 14.7619 11.1903 14.5238 11.1903 14.1667V8.21428C11.1903 7.85713 11.4284 7.61904 11.7856 7.61904Z" fill="#555555"/>
</svg>
