<svg width="16" height="16" viewBox="0 0 16 16" fill="none" xmlns="http://www.w3.org/2000/svg">
    <path fill-rule="evenodd" clip-rule="evenodd" d="M8.00005 3C9.08069 3.00042 10.1321 3.35093 10.9968 3.99904C11.8616 4.64715 12.493 5.55797 12.7967 6.59508C13.1003 7.63219 13.0598 8.73976 12.6812 9.7519C12.3025 10.764 11.6062 11.6263 10.6964 12.2094C9.7866 12.7926 8.71237 13.0653 7.63459 12.9868C6.5568 12.9082 5.53348 12.4826 4.71789 11.7736C3.90231 11.0647 3.33836 10.1105 3.11052 9.0542C2.88268 7.99784 3.0032 6.89611 3.45405 5.914C3.50312 5.7946 3.50411 5.66084 3.4568 5.54072C3.4095 5.42061 3.31757 5.32344 3.20025 5.26957C3.08294 5.21569 2.94933 5.20927 2.82739 5.25167C2.70546 5.29406 2.60464 5.38197 2.54605 5.497C2.00506 6.67559 1.86048 7.99773 2.13398 9.26538C2.40747 10.533 3.08432 11.678 4.06312 12.5286C5.04193 13.3793 6.27001 13.89 7.56341 13.9842C8.8568 14.0783 10.1459 13.7509 11.2376 13.0509C12.3293 12.3509 13.1648 11.3161 13.619 10.1014C14.0732 8.88676 14.1216 7.55762 13.757 6.31311C13.3924 5.0686 12.6344 3.97571 11.5966 3.19815C10.5587 2.42059 9.29687 2.00022 8.00005 2V3Z" fill="black"/>
    <path d="M8.00002 4.46596V0.533964C8.00001 0.48646 7.98646 0.439945 7.96096 0.399865C7.93546 0.359785 7.89907 0.327799 7.85605 0.307653C7.81303 0.287507 7.76516 0.280035 7.71805 0.286112C7.67093 0.292188 7.62653 0.311562 7.59002 0.341964L5.23002 2.30796C5.20189 2.33143 5.17925 2.36079 5.16372 2.39396C5.14819 2.42714 5.14014 2.46333 5.14014 2.49996C5.14014 2.5366 5.14819 2.57279 5.16372 2.60596C5.17925 2.63914 5.20189 2.6685 5.23002 2.69196L7.59002 4.65796C7.62653 4.68837 7.67093 4.70774 7.71805 4.71382C7.76516 4.71989 7.81303 4.71242 7.85605 4.69228C7.89907 4.67213 7.93546 4.64014 7.96096 4.60006C7.98646 4.55998 8.00001 4.51347 8.00002 4.46596Z" fill="black"/>
</svg>
