<svg width="24" height="24" viewBox="0 0 24 24" fill="none" xmlns="http://www.w3.org/2000/svg">
    <path fill-rule="evenodd" clip-rule="evenodd" d="M8.42673 22.6507L13.0731 19H18C20.7614 19 23 16.7614 23 14V7C23 4.23858 20.7614 2 18 2H6C3.23858 2 1 4.23858 1 7V14C1 16.7614 3.23858 19 6 19V21.4713C6 22.2997 6.67157 22.9713 7.5 22.9713C7.8361 22.9713 8.16245 22.8584 8.42673 22.6507ZM12.3814 17L8 20.4425V17H6C4.34315 17 3 15.6569 3 14V7C3 5.34315 4.34315 4 6 4H18C19.6569 4 21 5.34315 21 7V14C21 15.6569 19.6569 17 18 17H12.3814Z" fill="#050038"/>
</svg>
