<svg width="24" height="24" viewBox="0 0 24 24" fill="none" xmlns="http://www.w3.org/2000/svg">
    <path fill-rule="evenodd" clip-rule="evenodd" d="M6.2958 22.1388L12.0001 19.1399L17.7043 22.1388C17.9145 22.2494 18.1554 22.2875 18.3895 22.2473C18.9773 22.1465 19.3722 21.5882 19.2713 21.0003L18.1819 14.6485L22.7968 10.1502C22.9668 9.98439 23.0775 9.76715 23.1117 9.53211C23.1975 8.94184 22.7885 8.3938 22.1982 8.30803L15.8207 7.38131L12.9685 1.60227C12.8634 1.38928 12.691 1.21688 12.478 1.11177C11.9432 0.84779 11.2956 1.0674 11.0316 1.60227L8.17945 7.38131L1.8019 8.30803C1.56685 8.34218 1.34961 8.45287 1.18382 8.62295C0.767483 9.05007 0.776223 9.73384 1.20335 10.1502L5.81819 14.6485L4.72877 21.0003C4.68862 21.2344 4.72676 21.4752 4.83729 21.6855C5.11485 22.2134 5.76784 22.4164 6.2958 22.1388ZM16.033 13.9503L16.985 19.5011L12.0001 16.8804L7.01511 19.5011L7.96715 13.9503L3.93424 10.0192L9.50758 9.20933L12.0001 4.15903L14.4925 9.20933L20.0659 10.0192L16.033 13.9503Z" fill="#050038"/>
</svg>
