<svg width="24" height="24" viewBox="0 0 24 24" fill="none" xmlns="http://www.w3.org/2000/svg"
     style="width: 24px; height: 24px;">
    <path d="M20.252 8.43858C20.4593 8.64388 20.5765 8.92311 20.5779 9.21485L20.6065 15.2116C20.6079 15.5033 20.4934 15.7837 20.2881 15.9909L16.068 20.2515C15.8627 20.4588 15.5834 20.576 15.2917 20.5774L9.29494 20.606C9.00321 20.6074 8.72287 20.4929 8.5156 20.2876L4.25502 16.0675L3.63519 16.6932L4.25502 16.0675C4.04775 15.8622 3.93052 15.5829 3.92913 15.2912L3.9005 9.29446C3.89911 9.00272 4.01366 8.72238 4.21897 8.51511L8.43907 4.25453C8.64437 4.04726 8.9236 3.93003 9.21534 3.92864L15.2121 3.90001C15.5038 3.89862 15.7842 4.01318 15.9914 4.21848L20.252 8.43858Z"
          stroke="currentColor" stroke-width="1.8"></path>
</svg>