<svg width="24" height="24" viewBox="0 0 24 24" fill="none" xmlns="http://www.w3.org/2000/svg"
     style="width: 24px; height: 24px;">
    <path d="M14.3096 8.28184H15.2096V7.38184V4.00201C15.2096 3.96478 15.219 3.95079 15.2238 3.94424C15.2318 3.93315 15.2482 3.91841 15.274 3.90858C15.2997 3.89875 15.3218 3.89882 15.3352 3.90171C15.3431 3.90341 15.3594 3.90762 15.3842 3.93539L22.4241 11.8151C22.458 11.8531 22.458 11.9104 22.4241 11.9484L15.3842 19.8281C15.3594 19.8559 15.3431 19.8601 15.3352 19.8618C15.3218 19.8647 15.2997 19.8648 15.274 19.8549C15.2482 19.8451 15.2318 19.8304 15.2238 19.8193C15.219 19.8127 15.2096 19.7988 15.2096 19.7615V16.3818V15.4818H14.3096H9.69036H8.79036V16.3818V19.7616C8.79036 19.7989 8.78102 19.8129 8.77625 19.8194C8.76817 19.8305 8.75177 19.8452 8.72602 19.8551C8.70026 19.8649 8.67821 19.8648 8.66479 19.8619C8.65687 19.8602 8.64059 19.856 8.61579 19.8283L1.57589 11.9485C1.54199 11.9106 1.54199 11.8532 1.57589 11.8153L8.61579 3.93551C8.64059 3.90774 8.65687 3.90353 8.66479 3.90183C8.67821 3.89894 8.70026 3.89887 8.72602 3.9087C8.75177 3.91853 8.76817 3.93327 8.77625 3.94436C8.78102 3.95091 8.79036 3.9649 8.79036 4.00213V7.38184V8.28184H9.69036H14.3096Z"
          stroke="currentColor" stroke-width="1.8"></path>
</svg>