<svg width="24" height="24" viewBox="0 0 24 24" fill="none" xmlns="http://www.w3.org/2000/svg"
     style="width: 24px; height: 24px;">
    <path d="M12.4441 6.41557V7.31557H13.3441H20.7085C20.7638 7.31557 20.8085 7.36034 20.8085 7.41557V15.8711C20.8085 15.9264 20.7638 15.9711 20.7085 15.9711H13.3441H12.4441V16.8711V20.2847C12.4441 20.3187 12.4357 20.3331 12.4304 20.3407C12.4224 20.3522 12.407 20.3665 12.3834 20.3766C12.3599 20.3867 12.3389 20.3879 12.325 20.3858C12.3158 20.3843 12.2997 20.3805 12.275 20.357L3.22221 11.7157C3.18094 11.6763 3.18094 11.6104 3.22221 11.571L12.275 2.92967C12.2997 2.90617 12.3158 2.90236 12.325 2.90093C12.3389 2.89877 12.3599 2.89998 12.3834 2.91007C12.407 2.92016 12.4224 2.93452 12.4304 2.94603C12.4357 2.95365 12.4441 2.96797 12.4441 3.00201V6.41557Z"
          stroke="currentColor" stroke-width="1.8"></path>
</svg>