<svg width="24" height="24" viewBox="0 0 24 24" fill="none" xmlns="http://www.w3.org/2000/svg"
     style="width: 24px; height: 24px;">
    <path d="M3.67306 5.05115C3.65944 5.02828 3.65737 5.01256 3.65746 5.00116C3.65757 4.98691 3.66163 4.9689 3.67205 4.95058C3.68247 4.93225 3.69587 4.91954 3.70805 4.91216C3.7178 4.90625 3.73237 4.9 3.75899 4.9H16.6696C16.7048 4.9 16.7375 4.91856 16.7555 4.94885L20.9222 11.9489C20.9409 11.9804 20.9409 12.0196 20.9222 12.0511L16.7555 19.0511C16.7375 19.0814 16.7048 19.1 16.6696 19.1H3.75899C3.73237 19.1 3.7178 19.0937 3.70805 19.0878C3.69587 19.0805 3.68247 19.0677 3.67205 19.0494C3.66163 19.0311 3.65757 19.0131 3.65745 18.9988C3.65736 18.9874 3.65944 18.9717 3.67306 18.9489L7.23081 12.9718C7.58727 12.373 7.58727 11.627 7.23081 11.0282L3.67306 5.05115Z"
          stroke="currentColor" stroke-width="1.8"></path>
</svg>