<svg width="24" height="24" viewBox="0 0 24 24" fill="none" xmlns="http://www.w3.org/2000/svg"
     style="width: 24px; height: 24px;">
    <path d="M10.6558 7.31556H11.5558V6.41556V3.00199C11.5558 2.96795 11.5642 2.95363 11.5695 2.94602C11.5775 2.93451 11.5929 2.92014 11.6165 2.91005C11.64 2.89997 11.661 2.89876 11.6749 2.90092C11.6841 2.90235 11.7002 2.90615 11.7248 2.92965L20.7777 11.571C20.819 11.6104 20.819 11.6763 20.7777 11.7157L11.7249 20.357C11.7002 20.3805 11.6841 20.3843 11.6749 20.3858C11.661 20.3879 11.64 20.3867 11.6165 20.3766C11.5929 20.3665 11.5775 20.3522 11.5695 20.3407C11.5642 20.333 11.5558 20.3187 11.5558 20.2847V16.8711V15.9711H10.6558H3.29135C3.23612 15.9711 3.19135 15.9263 3.19135 15.8711V7.41556C3.19135 7.36033 3.23612 7.31556 3.29135 7.31556H10.6558Z"
          stroke="currentColor" stroke-width="1.8"></path>
</svg>