<svg width="24" height="24" viewBox="0 0 24 24" fill="none" xmlns="http://www.w3.org/2000/svg"
     style="width: 24px; height: 24px;">
    <path d="M7 7.9H7.9V7V4C7.9 3.39249 8.39249 2.9 9 2.9H15C15.6075 2.9 16.1 3.39249 16.1 4V7V7.9H17H20C20.6075 7.9 21.1 8.39249 21.1 9V15C21.1 15.6075 20.6075 16.1 20 16.1H17H16.1V17V20C16.1 20.6075 15.6075 21.1 15 21.1H9C8.39249 21.1 7.9 20.6075 7.9 20V17V16.1H7H4C3.39249 16.1 2.9 15.6075 2.9 15V9C2.9 8.39249 3.39249 7.9 4 7.9H7Z"
          stroke="currentColor" stroke-width="1.8"></path>
</svg>