<svg width="24" height="24" viewBox="0 0 24 24" fill="none" xmlns="http://www.w3.org/2000/svg"
     style="width: 24px; height: 24px;">
    <path fill-rule="evenodd"
          d="M21.9594 6.94405C21.7204 5.40815 20.4094 4.21438 18.8358 3.42756C17.0396 2.52949 14.6213 2 11.9992 2C9.37707 2 6.95872 2.52949 5.16258 3.42756C3.58894 4.21438 2.27797 5.40815 2.03891 6.94405H1.99998V16.3802C1.99998 18.1905 3.3968 19.6059 5.15079 20.5154C6.94973 21.4482 9.37243 21.9983 11.9992 21.9983C14.6259 21.9983 17.0486 21.4482 18.8475 20.5154C20.6015 19.6059 21.9983 18.1905 21.9983 16.3802V6.94405H21.9594ZM11.9992 11.0992C9.59592 11.0992 7.46469 10.6102 5.96757 9.86165C4.41717 9.08645 3.80043 8.18203 3.79998 7.45038V7.4488C3.80043 6.71715 4.41717 5.81273 5.96757 5.03753C7.46469 4.28897 9.59592 3.8 11.9992 3.8C14.4024 3.8 16.5336 4.28897 18.0308 5.03753C19.5817 5.813 20.1983 6.7178 20.1983 7.44959C20.1983 8.18138 19.5817 9.08617 18.0308 9.86165C16.5336 10.6102 14.4024 11.0992 11.9992 11.0992ZM20.1983 10.6253C19.7854 10.9452 19.3232 11.2279 18.8358 11.4716C17.0396 12.3697 14.6213 12.8992 11.9992 12.8992C9.37707 12.8992 6.95872 12.3697 5.16258 11.4716C4.67517 11.2279 4.21295 10.9452 3.79998 10.6253V16.3802C3.79998 17.1757 4.44009 18.1193 5.97936 18.9175C7.47367 19.6923 9.60057 20.1983 11.9992 20.1983C14.3978 20.1983 16.5247 19.6923 18.019 18.9175C19.5582 18.1193 20.1983 17.1757 20.1983 16.3802V10.6253Z"
          fill="currentColor"></path>
</svg>