<svg width="24" height="24" viewBox="0 0 24 24" fill="none" xmlns="http://www.w3.org/2000/svg"
     style="width: 24px; height: 24px;">
    <path d="M19.1498 8.12942L18.9895 8.95084L19.7971 9.17031C21.3773 9.59972 22.4731 10.9487 22.4731 12.4833C22.4731 13.901 21.5408 15.1571 20.1512 15.6818L19.5155 15.9218L19.5722 16.5988C19.5788 16.6767 19.5821 16.7556 19.5821 16.8356C19.5821 18.3711 18.3424 19.6106 16.8195 19.6106C16.2161 19.6106 15.66 19.4173 15.206 19.0884L14.4417 18.5348L13.925 19.3244C13.4292 20.082 12.5786 20.5777 11.6143 20.5777C10.5661 20.5777 9.65135 19.9913 9.18244 19.1206L8.73358 18.2873L7.92388 18.7776C7.45803 19.0596 6.90757 19.2236 6.31413 19.2236C4.61055 19.2236 3.26243 17.8766 3.26243 16.2551C3.26243 15.774 3.37941 15.3216 3.58718 14.9209L4.05462 14.0194L3.1035 13.6636C2.19708 13.3246 1.52704 12.4149 1.52704 11.323C1.52704 9.96428 2.55686 8.90054 3.79171 8.84083L4.78871 8.79263L4.63791 7.80592C4.62047 7.69176 4.61134 7.57433 4.61134 7.45418C4.61134 6.18576 5.63529 5.16272 6.89198 5.16272C7.18142 5.16272 7.45628 5.21645 7.70869 5.31377L8.44216 5.59655L8.82102 4.90778C9.30983 4.01913 10.2497 3.42222 11.3256 3.42222C12.5174 3.42222 13.5428 4.15533 13.9715 5.20352L14.3964 6.24229L15.3181 5.60191C15.717 5.32477 16.1997 5.16272 16.7227 5.16272C18.0858 5.16272 19.1961 6.27235 19.1961 7.6476C19.1961 7.81325 19.1801 7.97425 19.1498 8.12942Z"
          stroke="currentColor" stroke-width="1.8"></path>
</svg>