<svg width="24" height="24" viewBox="0 0 24 24" fill="none" xmlns="http://www.w3.org/2000/svg"
     data-icon="VerticalAlignOutlined">
    <path d="M12.707 9.707a1 1 0 0 1-1.414 0l-4-4a1 1 0 0 1 1.414-1.414L11 6.586V1a1 1 0 1 1 2 0v5.586l2.293-2.293a1 1 0 1 1 1.414 1.414l-4 4ZM1 12a1 1 0 0 1 1-1h20a1 1 0 1 1 0 2H2a1 1 0 0 1-1-1Zm11.707 2.293a1 1 0 0 0-1.414 0l-4 4a1 1 0 1 0 1.414 1.414L11 17.414V23a1 1 0 1 0 2 0v-5.586l2.293 2.293a1 1 0 0 0 1.414-1.414l-4-4Z"
          fill="currentColor"></path>
</svg>