<svg width="20" height="20" fill="none" viewBox="0 0 20 20" class="_titleh2bold20"><defs><clipPath id="1f952a_0"><rect width="20" height="20" rx="0"></rect></clipPath></defs><g clip-path="url(#1f952a_0)"><path fill="currentColor" fill-opacity="0.94" d="M2.9 3a.6.6 0 0 1 1.2 0v5.9h6.8V3a.6.6 0 0 1 1.2 0v14a.6.6 0 1 1-1.2 0v-6.9H4.1V17a.6.6 0 1 1-1.2 0V3ZM14 17.1h4a.6.6 0 1 0 0-1.2h-2.763l.103-.115q.748-.834 1.43-1.367 1.382-1.08 1.232-2.53-.065-.636-.442-1.135-.383-.508-.963-.71-1.108-.384-2.03.232-.695.464-1.114 1.393a.602.602 0 0 0 .547.847.6.6 0 0 0 .547-.354q.608-1.348 1.656-.984.54.188.606.834.08.79-.778 1.462-.766.598-1.585 1.511-.657.733-.951 1.193A.6.6 0 0 0 14 17.1Z"></path></g></svg>