<svg width="20" height="20" fill="none" viewBox="0 0 20 20" class="_titleh3bold20"><defs><clipPath id="47d06f_0"><rect width="20" height="20" rx="0"></rect></clipPath></defs><g clip-path="url(#47d06f_0)"><path fill="currentColor" fill-opacity="0.94" d="M2.9 3a.6.6 0 0 1 1.2 0v5.9h6.8V3a.6.6 0 0 1 1.2 0v14a.6.6 0 1 1-1.2 0v-6.9H4.1V17a.6.6 0 1 1-1.2 0V3Zm11.918 12.566q-.29-.183-.454-.635a.6.6 0 1 0-1.129.407q.303.84.944 1.244.613.385 1.412.385.47 0 .893-.144l.006-.002.007-.002q.438-.16.773-.463.345-.31.541-.755.196-.444.196-.993 0-.375-.107-.72-.109-.35-.306-.632-.104-.148-.228-.272.043-.052.083-.108.191-.256.293-.566.112-.319.112-.668 0-.506-.188-.917-.182-.42-.505-.706-.307-.282-.722-.427-.393-.137-.832-.137-.688 0-1.232.328-.538.317-.874.96a.601.601 0 0 0 1.064.556q.177-.34.428-.488.259-.156.614-.156.236 0 .438.07.18.063.322.194.123.108.199.285l.003.01.005.009q.08.173.08.419 0 .146-.045.272l-.003.009-.003.01q-.041.127-.117.227l-.005.007-.005.007q-.078.11-.186.194-.113.088-1.347.088v1.2h.96q.386 0 .5.083l.006.005.007.005q.112.077.194.194.09.13.144.3.053.172.053.365 0 .296-.094.508-.092.21-.246.349-.16.144-.377.225-.232.077-.499.077-.453 0-.773-.2Z"></path></g></svg>