<svg width="20" height="20" fill="none" viewBox="0 0 20 20" class="_titleh5bold20"><defs><clipPath id="d7ae20_0"><rect width="20" height="20" rx="0"></rect></clipPath></defs><g clip-path="url(#d7ae20_0)"><path fill="currentColor" fill-opacity="0.94" d="M2.875 3v14a.625.625 0 1 0 1.25 0v-6.875h6.75V17a.625.625 0 1 0 1.25 0V3a.625.625 0 1 0-1.25 0v5.875h-6.75V3a.625.625 0 1 0-1.25 0Zm14.75 6.883H14.51a.625.625 0 0 0-.626.625v2.276a.625.625 0 0 0 .694.622l.103-.001.46.001q.595.003.968.003.281 0 .485.21.281.29.281.881 0 .803-.209 1.114-.18.27-.72.27-.788 0-.788-.51v-.626h-1.25v.626q0 .768.574 1.268.563.491 1.463.491 2.18 0 2.18-2.633 0-1.1-.634-1.752-.573-.589-1.382-.589-.37 0-.962-.003h-.013v-1.023h2.491v-1.25Z"></path></g></svg>