<svg width="20" height="20" viewBox="0 0 14 14" fill="#000000" xmlns="http://www.w3.org/2000/svg">
    <path fill-rule="evenodd" clip-rule="evenodd"
          d="M6.45225 1.72565C6.48016 1.65886 6.54547 1.61537 6.61786 1.61537H7.51997C7.5931 1.61537 7.65892 1.65974 7.68635 1.72753L11.8985 12.1378C11.9462 12.2558 11.8594 12.3846 11.7321 12.3846H10.6615C10.5884 12.3846 10.5227 12.3403 10.4952 12.2726L9.19269 9.06521H4.75696L3.46987 12.272C3.44257 12.34 3.37662 12.3846 3.3033 12.3846H2.26786C2.13971 12.3846 2.05284 12.2542 2.10225 12.1359L6.45225 1.72565ZM6.49677 4.61934L5.22718 7.86363H8.7695L7.51558 4.61934C7.49499 4.56672 7.46538 4.48603 7.42676 4.37726C7.40658 4.32043 7.38394 4.25593 7.35884 4.18376C7.35202 4.16417 7.34521 4.14453 7.33839 4.12485C7.33754 4.1224 7.3367 4.11996 7.33585 4.11751C7.27037 3.92832 7.20489 3.73512 7.1394 3.53791C7.11075 3.43266 7.07883 3.33537 7.05111 3.25089C7.01817 3.15051 6.99117 3.06823 6.98266 3.01221C6.93409 3.21836 6.8809 3.42229 6.82311 3.62401C6.82111 3.63099 6.81911 3.63796 6.8171 3.64492C6.78972 3.73991 6.76131 3.83442 6.73188 3.92843C6.67603 4.10088 6.6257 4.25215 6.58091 4.38222C6.55028 4.47117 6.52223 4.55021 6.49677 4.61934ZM7.00471 5.51663L6.39932 7.06363H7.60262L7.00471 5.51663ZM5.2979 9.86521L4.21231 12.57C4.06328 12.9413 3.7034 13.1846 3.3033 13.1846H2.26786C1.56849 13.1846 1.09446 12.4728 1.3641 11.8275L5.7141 1.41721C5.86642 1.0527 6.2228 0.815369 6.61786 0.815369H7.51997C7.91907 0.815369 8.27826 1.05751 8.42795 1.42748L12.6401 11.8377C12.9006 12.4816 12.4267 13.1846 11.7321 13.1846H10.6615C10.2628 13.1846 9.90397 12.943 9.75398 12.5736L8.65412 9.86521H5.2979Z"
          fill="var(--N400)"></path>
</svg>